<svg xmlns="http://www.w3.org/2000/svg" viewBox="0 0 185 90"><path stroke="none" fill="white" d=" M50,24 c-2,-7 -6,-18 -24,-18 s-26,18 -26,30 s6.5,28 23,29 s17,-5 20.5,-7 l2,7 l4.75,0 l0,-29.5 l-23.5,0 l0,6 l15.5,0 l0,3 c0,12 -10,15 -16,15 s-16.5,-5 -17.5,-20 s4,-28 20,-27 c10,1 12.5,6 14,11.5 "/><path stroke="none" fill="white" d=" M 86,37 l-9,18 l36,0 l-27,-54 l-35,70 l70,0 l-4,-8 l-53,0 l22,-44 l14,28 l-9,0Z "/><path stroke="none" fill="white" d=" M122,7.5 l8,0 l0,56.5 l-8,0Z "/><path stroke="none" fill="white" d=" M153.5,7.5 l8.5,0 l20.5,56.5 l-8,0 l-6,-16.5 l-21.5,0 l-6,16.5 l-8.5,0Z M157.75,18 l-8.5,24 l17,0Z "/><text fill="white" x="44.5" y="83" style="font: 12px Franklin Gothic Book;" transform="scale(1.142, 1)">RETHINK ESG</text><path stroke="white" d="M6,79 l44,0 m82,0 l44,0"/></svg>